<svg width="25" height="24" viewBox="0 0 25 24" fill="none" xmlns="http://www.w3.org/2000/svg">
<path d="M12.5 9.75C12.4 9.75 12.31 9.73 12.21 9.69C11.93 9.58 11.75 9.3 11.75 9V2C11.75 1.59 12.09 1.25 12.5 1.25C12.91 1.25 13.25 1.59 13.25 2V7.19L13.97 6.47C14.26 6.18 14.74 6.18 15.03 6.47C15.32 6.76 15.32 7.24 15.03 7.53L13.03 9.53C12.89 9.67 12.7 9.75 12.5 9.75Z" fill="white"/>
<path d="M12.5004 9.75C12.3104 9.75 12.1204 9.68 11.9704 9.53L9.97043 7.53C9.68043 7.24 9.68043 6.76 9.97043 6.47C10.2604 6.18 10.7404 6.18 11.0304 6.47L13.0304 8.47C13.3204 8.76 13.3204 9.24 13.0304 9.53C12.8804 9.68 12.6904 9.75 12.5004 9.75Z" fill="white"/>
<path d="M14.2605 17.75H10.7305C9.68047 17.75 8.74047 17.17 8.27047 16.23L7.10047 13.89C7.06047 13.8 6.97047 13.75 6.88047 13.75H2.48047C2.07047 13.75 1.73047 13.41 1.73047 13C1.73047 12.59 2.07047 12.25 2.48047 12.25H6.89047C7.56047 12.25 8.16047 12.62 8.46047 13.22L9.63047 15.56C9.84047 15.99 10.2705 16.25 10.7505 16.25H14.2805C14.7605 16.25 15.1905 15.99 15.4005 15.56L16.5705 13.22C16.8705 12.62 17.4705 12.25 18.1405 12.25H22.5005C22.9105 12.25 23.2505 12.59 23.2505 13C23.2505 13.41 22.9105 13.75 22.5005 13.75H18.1405C18.0405 13.75 17.9605 13.8 17.9205 13.89L16.7505 16.23C16.2505 17.17 15.3105 17.75 14.2605 17.75Z" fill="white"/>
<path d="M15.5 22.75H9.5C4.07 22.75 1.75 20.43 1.75 15V11C1.75 6.31 3.49 3.96 7.39 3.39C7.81 3.33 8.18 3.61 8.24 4.02C8.3 4.43 8.02 4.81 7.61 4.87C4.47 5.33 3.25 7.05 3.25 11V15C3.25 19.61 4.89 21.25 9.5 21.25H15.5C20.11 21.25 21.75 19.61 21.75 15V11C21.75 7.05 20.53 5.33 17.39 4.87C16.98 4.81 16.7 4.43 16.76 4.02C16.82 3.61 17.2 3.33 17.61 3.39C21.51 3.96 23.25 6.31 23.25 11V15C23.25 20.43 20.93 22.75 15.5 22.75Z" fill="white"/>
</svg>
